<svg width="100%" height="100%" viewBox="0 0 1390 332" fill="none" xmlns="http://www.w3.org/2000/svg">
<g filter="url(#filter0_d_111_1393)">
<path d="M167.303 83.3731C167.055 88.7883 167.927 93.662 170.238 98.3669C170.75 98.9113 171.274 100 169.274 100H149H130C128 100 128.524 98.9113 129.036 98.3669C131.347 93.662 132.218 88.7883 131.971 83.3731C131.443 72.0574 130.379 60.2423 131.963 48.7367C133.855 34.9807 137.997 21.7333 144.389 8.99463C145.908 5.96586 147.467 3.00741 149.067 0.119293C149.098 0.0621711 149.242 0 149.5 0C149.758 0 149.966 0.057939 150 0.119293C151.599 3.00741 153.366 5.96586 154.885 8.99463C161.277 21.7333 165.419 34.9807 167.311 48.7367C168.894 60.2423 167.831 72.0574 167.303 83.3731Z" fill="white"/>
</g>
<g filter="url(#filter1_d_111_1393)">
<path d="M81.0709 93.4707C72.1797 79.9222 66.0045 63.8413 61.9224 47.7365C61.7573 47.0708 61.9943 46.8631 62.6334 47.1134C93.5889 59.1201 124.52 84.1481 118.769 121.367C118.755 121.455 118.723 121.539 118.674 121.614C118.626 121.688 118.563 121.752 118.488 121.801C118.414 121.85 118.33 121.883 118.242 121.897C118.154 121.912 118.064 121.908 117.978 121.886C102.352 117.812 89.9221 106.955 81.0709 93.4707Z" fill="white"/>
</g>
<g filter="url(#filter2_d_111_1393)">
<path d="M240.226 132.095C229.676 140.041 220.132 148.639 211.595 157.89C206.264 163.663 200.701 170.65 194.907 178.852C191.76 183.301 189.643 188.095 186.703 192.616C185.337 194.717 184.418 196.978 183.396 199.278C182.062 202.274 180.216 204.846 178.922 207.866C178.693 208.404 178.477 208.399 178.275 207.85C177.295 205.171 176.645 202.362 176.326 199.422C173.762 175.848 181.446 150.876 196.928 132.63C218.433 107.259 249.245 93.8541 279.362 82.8939C284.767 80.9234 290.298 79.2671 295.954 77.925C296.161 77.8771 296.364 77.8904 296.561 77.965C296.622 77.9876 296.678 78.0234 296.725 78.0698C296.772 78.1162 296.808 78.1722 296.831 78.2341C296.855 78.2961 296.865 78.3625 296.861 78.429C296.857 78.4956 296.839 78.5607 296.808 78.62C293.957 83.9723 292.822 89.5882 290.713 94.6769C289.155 98.4235 287.254 102.146 286.016 106.132C284.807 110.031 283.353 113.495 281.654 116.525C280.525 118.533 279.617 120.618 278.93 122.78C278.121 125.315 276.925 127.845 275.343 130.37C273.099 133.948 272.1 138.023 269.807 141.577C267.949 144.448 266.082 147.5 264.207 150.732C262.056 154.45 259.417 158.292 256.291 162.26C250.379 169.769 244.644 176.543 237.31 182.862C229.465 189.628 221.045 194.03 211.675 197.976C206.035 200.357 199.261 202.514 193.142 202.514C192.535 202.514 192.367 202.239 192.638 201.691C195.786 195.38 199.868 189.644 203.303 183.413C205.732 179.02 209.151 174.897 212.034 170.56C221.157 156.875 230.344 144.294 240.537 132.431C241.453 131.36 241.35 131.248 240.226 132.095Z" fill="white"/>
</g>
<g filter="url(#filter3_d_111_1393)">
<path d="M165.192 138.11C165.24 128.492 166.15 118.978 171.814 110.885C172.123 110.443 172.208 109.967 172.07 109.455C172.035 109.326 171.96 109.212 171.854 109.13C171.749 109.048 171.62 109.002 171.487 109C170.324 108.833 164.1 108.5 148.5 108.5C132.9 108.5 128.338 108.833 128.007 109C127.873 109.002 127.744 109.048 127.639 109.13C127.534 109.212 127.458 109.326 127.424 109.455C127.285 109.967 127.37 110.443 127.679 110.885C133.343 118.978 134.254 128.492 134.302 138.11C134.408 156.548 134.472 174.45 134.493 191.817C134.501 202.018 132.041 211.501 125.171 219.449C125.093 219.54 125.04 219.649 125.015 219.766C124.991 219.883 124.996 220.004 125.03 220.118C125.078 220.249 125.243 220.527 125.514 220.591C127.027 221.007 128.582 221.212 130.18 221.207C134.453 221.304 144.1 221.5 148.5 221.5C152.9 221.5 164.209 221.304 169.314 221.207C170.912 221.212 172.467 221.007 173.979 220.591C174.25 220.527 174.415 220.249 174.463 220.118C174.498 220.004 174.503 219.883 174.478 219.766C174.453 219.649 174.4 219.54 174.323 219.449C167.452 211.501 164.992 202.018 165 191.817C165.021 174.45 165.085 156.548 165.192 138.11Z" fill="white"/>
</g>
<g filter="url(#filter4_d_111_1393)">
<path d="M59.6719 202.07C59.5761 202.032 59.5042 202.059 59.4563 202.15V202.157C59.4243 202.216 59.4376 202.261 59.4962 202.293C66.4302 206.375 72.8769 211.28 79.3077 215.794C90.3957 223.585 100.893 231.872 110.798 240.654C110.865 240.712 110.912 240.788 110.936 240.872C110.959 240.957 110.957 241.047 110.93 241.13C110.902 241.214 110.851 241.287 110.782 241.342C110.714 241.396 110.63 241.429 110.543 241.437C95.6602 243.075 79.7071 241.341 66.2545 235.246C52.7619 229.135 40.851 220.204 30.5139 209.547C21.9502 200.722 13.9164 191.112 6.41257 180.716C5.56047 179.539 4.7696 178.298 4.03999 176.994C4.01432 176.948 4.00058 176.897 4.00002 176.844C3.99946 176.792 4.0121 176.74 4.03678 176.694C4.06146 176.648 4.09739 176.609 4.14123 176.58C4.18508 176.551 4.23542 176.534 4.28763 176.53C7.40847 176.232 10.5373 175.841 13.6741 175.356C25.6649 173.527 38.2308 173.686 50.629 175.013C77.7899 177.928 105.742 192.451 116.35 218.542C118.363 223.487 119.338 228.607 119.274 233.944C119.274 234.022 119.252 234.099 119.21 234.166C119.168 234.233 119.109 234.286 119.038 234.321C118.968 234.356 118.889 234.371 118.811 234.363C118.732 234.356 118.658 234.327 118.595 234.279C113.842 230.788 109.201 226.978 104.32 223.718C94.5018 217.16 83.8771 211.113 72.6772 207.126C68.0759 205.491 63.7408 203.806 59.6719 202.07Z" fill="white"/>
</g>
<g filter="url(#filter5_d_111_1393)">
<path d="M170 236C167.577 250.539 165.449 264.599 165.243 282.513C165.084 296.29 165.069 309.448 165.195 321.987C165.201 322.662 165.048 323 164.736 323L134.048 322.966C133.747 322.966 133.602 322.645 133.613 322.004C133.89 303.617 133.898 283.745 132.489 266.49C131.555 255.032 132.489 247.151 129 236C128.061 233 125.959 231.68 126 231.203C126.106 229.819 126.333 230.055 126.655 230.055C141.964 229.976 157.235 229.982 172.47 230.072C172.828 230.072 173.005 230.449 173 231.203C173 232.261 170.5 233 170 236Z" fill="white"/>
</g>
<g filter="url(#filter6_d_111_1393)">
<path d="M1310.19 323.359C1299.35 323.359 1289.32 321.583 1280.08 318.03C1270.93 314.477 1262.98 309.592 1256.23 303.374C1249.57 297.157 1244.33 289.873 1240.51 281.524C1236.78 273.085 1234.91 263.981 1234.91 254.21C1234.91 243.729 1236.78 234.092 1240.51 225.299C1244.33 216.416 1249.57 208.777 1256.23 202.382C1262.89 195.987 1270.8 191.013 1279.95 187.46C1289.18 183.818 1299.22 181.997 1310.06 181.997C1320.89 181.997 1330.93 183.774 1340.17 187.327C1349.41 190.791 1357.36 195.587 1364.02 201.716C1370.77 207.845 1376.05 215.084 1379.87 223.433C1383.69 231.694 1385.6 240.621 1385.6 250.213C1385.6 260.25 1383.69 269.71 1379.87 278.592C1376.14 287.475 1370.9 295.247 1364.15 301.909C1357.49 308.481 1349.54 313.722 1340.3 317.63C1331.06 321.45 1321.03 323.359 1310.19 323.359ZM1314.99 306.705C1318.72 306.705 1322.18 305.506 1325.38 303.108C1328.58 300.621 1331.33 297.334 1333.64 293.248C1336.04 289.074 1337.86 284.277 1339.1 278.859C1340.44 273.441 1341.1 267.8 1341.1 261.938C1341.1 253.233 1340.44 245.062 1339.1 237.423C1337.86 229.695 1335.77 222.945 1332.84 217.171C1329.91 211.398 1326.09 206.823 1321.38 203.448C1316.76 200.073 1311.08 198.385 1304.33 198.385C1301.04 198.385 1297.89 199.584 1294.87 201.982C1291.85 204.381 1289.18 207.623 1286.87 211.709C1284.57 215.706 1282.7 220.369 1281.28 225.698C1279.95 230.939 1279.28 236.49 1279.28 242.353C1279.28 251.146 1280.08 259.451 1281.68 267.267C1283.37 275.084 1285.72 281.923 1288.74 287.786C1291.85 293.559 1295.58 298.178 1299.93 301.642C1304.37 305.017 1309.39 306.705 1314.99 306.705Z" fill="white"/>
<path d="M1137.79 323.359C1126.95 323.359 1116.91 321.583 1107.67 318.03C1098.53 314.477 1090.58 309.592 1083.82 303.374C1077.16 297.157 1071.92 289.873 1068.1 281.524C1064.37 273.085 1062.51 263.981 1062.51 254.21C1062.51 243.729 1064.37 234.092 1068.1 225.299C1071.92 216.416 1077.16 208.777 1083.82 202.382C1090.49 195.987 1098.39 191.013 1107.54 187.46C1116.78 183.818 1126.82 181.997 1137.65 181.997C1148.49 181.997 1158.53 183.774 1167.76 187.327C1177 190.791 1184.95 195.587 1191.61 201.716C1198.36 207.845 1203.65 215.084 1207.47 223.433C1211.29 231.694 1213.2 240.621 1213.2 250.213C1213.2 260.25 1211.29 269.71 1207.47 278.592C1203.74 287.475 1198.5 295.247 1191.75 301.909C1185.08 308.481 1177.13 313.722 1167.9 317.63C1158.66 321.45 1148.62 323.359 1137.79 323.359ZM1142.58 306.705C1146.31 306.705 1149.78 305.506 1152.97 303.108C1156.17 300.621 1158.92 297.334 1161.23 293.248C1163.63 289.074 1165.45 284.277 1166.7 278.859C1168.03 273.441 1168.7 267.8 1168.7 261.938C1168.7 253.233 1168.03 245.062 1166.7 237.423C1165.45 229.695 1163.37 222.945 1160.43 217.171C1157.5 211.398 1153.68 206.823 1148.98 203.448C1144.36 200.073 1138.67 198.385 1131.92 198.385C1128.64 198.385 1125.48 199.584 1122.46 201.982C1119.44 204.381 1116.78 207.623 1114.47 211.709C1112.16 215.706 1110.29 220.369 1108.87 225.698C1107.54 230.939 1106.87 236.49 1106.87 242.353C1106.87 251.146 1107.67 259.451 1109.27 267.267C1110.96 275.084 1113.31 281.923 1116.33 287.786C1119.44 293.559 1123.17 298.178 1127.53 301.642C1131.97 305.017 1136.99 306.705 1142.58 306.705Z" fill="#B8B8B8"/>
<path d="M982.833 181.997C976.971 181.997 970.886 183.108 964.58 185.328C959.357 187.14 951.597 192.153 948.37 194.432C948.904 182.532 949.38 178.202 947.778 166.102C945.863 151.635 941.672 137.703 935.204 124.306C933.667 121.121 931.88 118.01 930.262 114.972C930.227 114.908 930.017 114.847 929.756 114.847C929.495 114.847 929.349 114.912 929.317 114.972C927.699 118.01 926.121 121.121 924.584 124.306C918.117 137.703 913.926 151.635 912.011 166.102C910.409 178.202 911.485 190.627 912.019 202.528C912.27 208.223 911.388 213.348 909.05 218.296C908.532 218.869 908.001 220.014 910.025 220.014H949.763C950.228 220.014 950.879 219.729 949.763 218.592C948.648 217.455 954.735 213.796 957.918 212.108C962.093 209.799 966.09 208.644 969.909 208.644C973.906 208.644 977.681 209.754 981.234 211.975C984.787 214.196 987.851 217.26 990.427 221.168C993.092 224.988 995.179 229.473 996.689 234.625C998.199 239.688 998.954 245.106 998.954 250.88C998.954 258.607 998.199 265.846 996.689 272.597C995.268 279.259 993.181 285.077 990.427 290.051C987.763 294.936 984.521 298.8 980.701 301.642C976.971 304.396 972.796 305.772 968.177 305.772C965.868 305.772 963.736 305.506 961.782 304.973C959.828 304.44 958.007 303.729 956.319 302.841C954.632 301.953 953.033 300.932 951.523 299.777C950.013 298.622 946.079 295.336 946.079 295.336V281.504C946.291 263.436 948.479 249.256 950.97 234.592C951.484 231.566 954.054 230.821 954.054 229.754C954.06 228.994 953.878 228.613 953.509 228.613C937.847 228.522 922.147 228.517 906.409 228.596C906.078 228.596 905.843 228.358 905.735 229.754C905.693 230.235 907.854 231.566 908.819 234.592C912.406 245.839 911.446 253.787 912.406 265.344C913.855 282.747 913.846 302.789 913.562 321.333C913.551 321.98 913.7 322.304 914.009 322.304L945.558 322.338V315.232C949.791 318.074 956.319 321.333 962.581 322.338C969.346 323.423 977.104 322.382 983.766 320.428C990.516 318.474 996.823 315.765 1002.68 312.301C1008.55 308.748 1013.88 304.484 1018.67 299.51C1023.47 294.536 1027.56 289.074 1030.93 283.122C1034.39 277.171 1037.06 270.82 1038.92 264.07C1040.79 257.23 1041.72 250.169 1041.72 242.886C1041.72 234.625 1040.26 226.809 1037.33 219.436C1034.39 212.064 1030.31 205.624 1025.07 200.117C1019.83 194.521 1013.61 190.125 1006.42 186.927C999.221 183.64 991.36 181.997 982.833 181.997Z" fill="white"/>
<path d="M683.5 109.993C673.341 117.615 664.151 125.863 655.93 134.738C650.797 140.276 645.44 146.979 639.861 154.846C636.83 159.115 634.791 163.713 631.961 168.05C630.645 170.066 629.761 172.235 628.776 174.442C627.491 177.315 625.714 179.783 624.468 182.68C624.248 183.196 624.04 183.191 623.845 182.665C622.902 180.095 622.276 177.4 621.968 174.58C619.499 151.965 626.899 128.009 641.807 110.506C662.515 86.167 692.184 73.3078 721.185 62.7936C726.39 60.9033 731.716 59.3144 737.162 58.027C737.362 57.981 737.557 57.9938 737.746 58.0653C737.806 58.0871 737.86 58.1213 737.905 58.1658C737.949 58.2104 737.984 58.2641 738.007 58.3235C738.029 58.383 738.039 58.4467 738.035 58.5105C738.032 58.5743 738.014 58.6368 737.985 58.6937C735.239 63.8282 734.146 69.2156 732.116 74.0971C730.616 77.6913 728.785 81.2624 727.592 85.0865C726.428 88.8262 725.028 92.1496 723.392 95.0565C722.305 96.9826 721.431 98.9828 720.769 101.057C719.99 103.489 718.839 105.916 717.315 108.337C715.154 111.77 714.192 115.679 711.985 119.089C710.195 121.843 708.397 124.77 706.592 127.871C704.52 131.437 701.979 135.123 698.969 138.93C693.277 146.133 687.754 152.632 680.692 158.693C673.138 165.184 665.03 169.407 656.007 173.193C650.576 175.476 644.053 177.545 638.161 177.545C637.576 177.545 637.415 177.282 637.676 176.756C640.707 170.702 644.638 165.2 647.945 159.222C650.284 155.007 653.576 151.053 656.353 146.892C665.138 133.764 673.984 121.695 683.8 110.314C684.682 109.287 684.582 109.18 683.5 109.993Z" fill="white"/>
<path d="M815.623 228.363C815.623 225.343 815.224 222.501 814.424 219.836C813.714 217.082 812.692 214.729 811.36 212.774C810.027 210.732 808.473 209.133 806.697 207.978C804.92 206.735 803.01 206.113 800.967 206.113C798.569 206.113 796.082 206.512 793.506 207.312C790.93 208.111 788.355 209.177 785.779 210.509C783.292 211.842 780.938 213.396 778.717 215.173C776.497 216.949 774.543 218.814 772.855 220.769V320.828H731.952V228.363C731.952 225.343 731.552 222.501 730.753 219.836C729.953 217.082 728.843 214.729 727.422 212.774C726.089 210.732 724.535 209.133 722.759 207.978C720.982 206.735 719.161 206.113 717.296 206.113C715.075 206.113 712.677 206.512 710.101 207.312C707.614 208.111 705.083 209.177 702.507 210.509C700.02 211.842 697.577 213.396 695.179 215.173C692.87 216.949 690.782 218.814 688.917 220.769V320.828H647.614V196.786L676.526 181.598H688.917V196.387C695.401 191.945 702.107 188.437 709.035 185.861C716.052 183.285 722.759 181.997 729.154 181.997C732.707 181.997 736.26 182.397 739.813 183.196C743.454 183.996 746.919 185.15 750.205 186.66C753.58 188.082 756.689 189.858 759.531 191.99C762.374 194.033 764.816 196.387 766.859 199.051C769.968 196.564 773.388 194.255 777.118 192.123C780.849 189.991 784.757 188.215 788.843 186.794C793.018 185.284 797.237 184.129 801.5 183.33C805.853 182.441 810.161 181.997 814.424 181.997C820.198 181.997 825.66 183.108 830.812 185.328C836.053 187.549 840.627 190.613 844.535 194.521C848.443 198.43 851.552 203.004 853.862 208.244C856.171 213.485 857.326 219.125 857.326 225.165V320.828H815.623V228.363Z" fill="white"/>
<path d="M560.479 250.48C556.481 252.168 552.44 254.211 548.354 256.609C544.268 259.007 540.582 261.716 537.296 264.736C534.098 267.667 531.433 270.954 529.302 274.595C527.259 278.148 526.237 281.968 526.237 286.054C526.237 290.584 527.392 294.137 529.701 296.712C532.1 299.288 535.297 300.576 539.294 300.576C542.669 300.576 546 299.599 549.287 297.645C552.573 295.602 556.304 292.982 560.479 289.784V250.48ZM484.801 219.037C486.222 213.352 488.709 208.2 492.262 203.581C495.815 198.874 500.212 194.921 505.453 191.723C510.782 188.437 516.822 185.905 523.572 184.129C530.412 182.353 537.784 181.464 545.689 181.464C555.46 181.464 563.898 182.353 571.004 184.129C578.11 185.905 583.928 188.437 588.458 191.723C593.077 194.921 596.452 198.829 598.584 203.448C600.804 207.978 601.915 213.085 601.915 218.77V296.846C601.915 302.442 603.647 307.194 607.111 311.102C610.575 315.01 615.46 318.252 621.767 320.828H572.736C571.315 320.828 569.938 320.428 568.606 319.629C567.273 318.829 566.074 317.808 565.009 316.564C563.943 315.232 563.01 313.811 562.211 312.301C561.411 310.791 560.834 309.325 560.479 307.904C557.991 310.214 555.638 312.345 553.417 314.299C551.196 316.165 548.754 317.764 546.089 319.096C543.424 320.428 540.449 321.45 537.162 322.16C533.876 322.96 529.923 323.359 525.305 323.359C518.998 323.359 513.313 322.471 508.25 320.695C503.276 318.918 499.013 316.476 495.46 313.367C491.996 310.169 489.331 306.439 487.466 302.175C485.601 297.823 484.668 293.115 484.668 288.052C484.668 280.236 486.844 273.53 491.196 267.934C495.549 262.338 501.278 257.453 508.384 253.278C515.578 249.103 523.706 245.461 532.766 242.353C541.826 239.244 551.063 236.268 560.479 233.426V220.102C560.479 215.75 560.034 212.064 559.146 209.044C558.258 205.935 557.014 203.448 555.416 201.583C553.817 199.629 551.863 198.252 549.553 197.452C547.333 196.564 544.846 196.12 542.092 196.12C538.806 196.12 535.874 196.742 533.299 197.985C530.723 199.229 528.502 200.917 526.637 203.048C524.772 205.18 523.262 207.623 522.107 210.376C520.952 213.13 520.108 216.017 519.575 219.037H484.801Z" fill="white"/>
<path d="M306 140.161H383.543C393.935 140.161 403.439 141.272 412.055 143.492C420.76 145.713 428.221 148.866 434.438 152.952C440.656 156.949 445.497 161.79 448.961 167.475C452.425 173.159 454.157 179.466 454.157 186.394C454.157 190.658 453.669 194.61 452.692 198.252C451.803 201.894 450.293 205.313 448.162 208.511C446.03 211.709 443.187 214.773 439.635 217.704C436.17 220.635 431.863 223.611 426.711 226.631C432.04 228.319 436.925 230.584 441.367 233.426C445.808 236.179 449.627 239.466 452.825 243.285C456.111 247.016 458.643 251.191 460.419 255.809C462.284 260.339 463.217 265.18 463.217 270.332C463.217 277.438 461.574 284.055 458.287 290.184C455.09 296.313 450.471 301.642 444.431 306.172C438.48 310.702 431.285 314.299 422.847 316.964C414.498 319.54 405.216 320.828 395.001 320.828H306V140.161ZM350.367 218.504H379.546C384.253 218.504 388.428 217.793 392.07 216.372C395.8 214.862 398.909 212.819 401.396 210.243C403.972 207.578 405.926 204.425 407.258 200.783C408.591 197.142 409.257 193.189 409.257 188.925C409.257 184.218 408.413 179.91 406.726 176.002C405.038 172.093 402.462 168.763 398.998 166.009C395.534 163.167 391.137 160.991 385.808 159.481C380.478 157.882 374.172 157.082 366.888 157.082H350.367V218.504ZM350.367 302.308H374.882C382.077 302.308 388.295 301.553 393.535 300.043C398.776 298.444 403.084 296.313 406.459 293.648C409.923 290.895 412.455 287.652 414.053 283.922C415.741 280.102 416.585 275.972 416.585 271.531C416.585 266.468 415.83 261.805 414.32 257.541C412.81 253.189 410.323 249.414 406.859 246.216C403.483 243.019 398.998 240.532 393.402 238.755C387.895 236.979 381.144 236.091 373.15 236.091H350.367V302.308Z" fill="white"/>
</g>
<defs>
<filter id="filter0_d_111_1393" x="124.569" y="0" width="50.1366" height="108" filterUnits="userSpaceOnUse" color-interpolation-filters="sRGB">
<feFlood flood-opacity="0" result="BackgroundImageFix"/>
<feColorMatrix in="SourceAlpha" type="matrix" values="0 0 0 0 0 0 0 0 0 0 0 0 0 0 0 0 0 0 127 0" result="hardAlpha"/>
<feOffset dy="4"/>
<feGaussianBlur stdDeviation="2"/>
<feComposite in2="hardAlpha" operator="out"/>
<feColorMatrix type="matrix" values="0 0 0 0 1 0 0 0 0 1 0 0 0 0 1 0 0 0 0.25 0"/>
<feBlend mode="normal" in2="BackgroundImageFix" result="effect1_dropShadow_111_1393"/>
<feBlend mode="normal" in="SourceGraphic" in2="effect1_dropShadow_111_1393" result="shape"/>
</filter>
<filter id="filter1_d_111_1393" x="57.8716" y="47.0108" width="65.5922" height="82.8953" filterUnits="userSpaceOnUse" color-interpolation-filters="sRGB">
<feFlood flood-opacity="0" result="BackgroundImageFix"/>
<feColorMatrix in="SourceAlpha" type="matrix" values="0 0 0 0 0 0 0 0 0 0 0 0 0 0 0 0 0 0 127 0" result="hardAlpha"/>
<feOffset dy="4"/>
<feGaussianBlur stdDeviation="2"/>
<feComposite in2="hardAlpha" operator="out"/>
<feColorMatrix type="matrix" values="0 0 0 0 1 0 0 0 0 1 0 0 0 0 1 0 0 0 0.25 0"/>
<feBlend mode="normal" in2="BackgroundImageFix" result="effect1_dropShadow_111_1393"/>
<feBlend mode="normal" in="SourceGraphic" in2="effect1_dropShadow_111_1393" result="shape"/>
</filter>
<filter id="filter2_d_111_1393" x="171.84" y="77.8969" width="129.022" height="138.369" filterUnits="userSpaceOnUse" color-interpolation-filters="sRGB">
<feFlood flood-opacity="0" result="BackgroundImageFix"/>
<feColorMatrix in="SourceAlpha" type="matrix" values="0 0 0 0 0 0 0 0 0 0 0 0 0 0 0 0 0 0 127 0" result="hardAlpha"/>
<feOffset dy="4"/>
<feGaussianBlur stdDeviation="2"/>
<feComposite in2="hardAlpha" operator="out"/>
<feColorMatrix type="matrix" values="0 0 0 0 1 0 0 0 0 1 0 0 0 0 1 0 0 0 0.25 0"/>
<feBlend mode="normal" in2="BackgroundImageFix" result="effect1_dropShadow_111_1393"/>
<feBlend mode="normal" in="SourceGraphic" in2="effect1_dropShadow_111_1393" result="shape"/>
</filter>
<filter id="filter3_d_111_1393" x="121" y="108.5" width="57.4934" height="121" filterUnits="userSpaceOnUse" color-interpolation-filters="sRGB">
<feFlood flood-opacity="0" result="BackgroundImageFix"/>
<feColorMatrix in="SourceAlpha" type="matrix" values="0 0 0 0 0 0 0 0 0 0 0 0 0 0 0 0 0 0 127 0" result="hardAlpha"/>
<feOffset dy="4"/>
<feGaussianBlur stdDeviation="2"/>
<feComposite in2="hardAlpha" operator="out"/>
<feColorMatrix type="matrix" values="0 0 0 0 1 0 0 0 0 1 0 0 0 0 1 0 0 0 0.25 0"/>
<feBlend mode="normal" in2="BackgroundImageFix" result="effect1_dropShadow_111_1393"/>
<feBlend mode="normal" in="SourceGraphic" in2="effect1_dropShadow_111_1393" result="shape"/>
</filter>
<filter id="filter4_d_111_1393" x="0" y="174" width="123.277" height="76.0201" filterUnits="userSpaceOnUse" color-interpolation-filters="sRGB">
<feFlood flood-opacity="0" result="BackgroundImageFix"/>
<feColorMatrix in="SourceAlpha" type="matrix" values="0 0 0 0 0 0 0 0 0 0 0 0 0 0 0 0 0 0 127 0" result="hardAlpha"/>
<feOffset dy="4"/>
<feGaussianBlur stdDeviation="2"/>
<feComposite in2="hardAlpha" operator="out"/>
<feColorMatrix type="matrix" values="0 0 0 0 1 0 0 0 0 1 0 0 0 0 1 0 0 0 0.25 0"/>
<feBlend mode="normal" in2="BackgroundImageFix" result="effect1_dropShadow_111_1393"/>
<feBlend mode="normal" in="SourceGraphic" in2="effect1_dropShadow_111_1393" result="shape"/>
</filter>
<filter id="filter5_d_111_1393" x="121.999" y="230" width="55.0006" height="101" filterUnits="userSpaceOnUse" color-interpolation-filters="sRGB">
<feFlood flood-opacity="0" result="BackgroundImageFix"/>
<feColorMatrix in="SourceAlpha" type="matrix" values="0 0 0 0 0 0 0 0 0 0 0 0 0 0 0 0 0 0 127 0" result="hardAlpha"/>
<feOffset dy="4"/>
<feGaussianBlur stdDeviation="2"/>
<feComposite in2="hardAlpha" operator="out"/>
<feColorMatrix type="matrix" values="0 0 0 0 1 0 0 0 0 1 0 0 0 0 1 0 0 0 0.25 0"/>
<feBlend mode="normal" in2="BackgroundImageFix" result="effect1_dropShadow_111_1393"/>
<feBlend mode="normal" in="SourceGraphic" in2="effect1_dropShadow_111_1393" result="shape"/>
</filter>
<filter id="filter6_d_111_1393" x="302" y="58" width="1087.6" height="273.359" filterUnits="userSpaceOnUse" color-interpolation-filters="sRGB">
<feFlood flood-opacity="0" result="BackgroundImageFix"/>
<feColorMatrix in="SourceAlpha" type="matrix" values="0 0 0 0 0 0 0 0 0 0 0 0 0 0 0 0 0 0 127 0" result="hardAlpha"/>
<feOffset dy="4"/>
<feGaussianBlur stdDeviation="2"/>
<feComposite in2="hardAlpha" operator="out"/>
<feColorMatrix type="matrix" values="0 0 0 0 1 0 0 0 0 1 0 0 0 0 1 0 0 0 0.25 0"/>
<feBlend mode="normal" in2="BackgroundImageFix" result="effect1_dropShadow_111_1393"/>
<feBlend mode="normal" in="SourceGraphic" in2="effect1_dropShadow_111_1393" result="shape"/>
</filter>
</defs>
</svg>
