<svg width="32" height="32" viewBox="0 0 375 375" fill="none" xmlns="http://www.w3.org/2000/svg">
<rect width="100%" height="100%" fill="#EFFFC0"/>
<path d="M202.303 107.373C202.055 112.788 202.927 117.662 205.238 122.367C205.75 122.911 206.274 124 204.274 124H184H165C163 124 163.524 122.911 164.036 122.367C166.347 117.662 167.218 112.788 166.971 107.373C166.443 96.0574 165.379 84.2423 166.963 72.7367C168.855 58.9807 172.997 45.7333 179.389 32.9946C180.908 29.9659 182.467 27.0074 184.067 24.1193C184.098 24.0622 184.242 24 184.5 24C184.758 24 184.966 24.0579 185 24.1193C186.599 27.0074 188.366 29.9659 189.885 32.9946C196.277 45.7333 200.419 58.9807 202.311 72.7367C203.894 84.2423 202.831 96.0574 202.303 107.373Z" fill="#07150F"/>
<path d="M116.071 117.471C107.18 103.922 101.005 87.8413 96.9224 71.7365C96.7573 71.0708 96.9943 70.8631 97.6334 71.1134C128.589 83.1201 159.52 108.148 153.769 145.367C153.755 145.455 153.723 145.539 153.674 145.614C153.626 145.688 153.563 145.752 153.488 145.801C153.414 145.85 153.33 145.883 153.242 145.897C153.154 145.912 153.064 145.908 152.978 145.886C137.352 141.812 124.922 130.955 116.071 117.471Z" fill="#07150F"/>
<path d="M275.226 156.095C264.676 164.041 255.132 172.639 246.595 181.89C241.264 187.663 235.701 194.65 229.907 202.852C226.76 207.301 224.643 212.095 221.703 216.616C220.337 218.717 219.418 220.978 218.396 223.278C217.062 226.274 215.216 228.846 213.922 231.866C213.693 232.404 213.477 232.399 213.275 231.85C212.295 229.171 211.645 226.362 211.326 223.422C208.762 199.848 216.446 174.876 231.928 156.63C253.433 131.259 284.245 117.854 314.362 106.894C319.767 104.923 325.298 103.267 330.954 101.925C331.161 101.877 331.364 101.89 331.561 101.965C331.622 101.988 331.678 102.023 331.725 102.07C331.772 102.116 331.808 102.172 331.831 102.234C331.855 102.296 331.865 102.363 331.861 102.429C331.857 102.496 331.839 102.561 331.808 102.62C328.957 107.972 327.822 113.588 325.713 118.677C324.155 122.424 322.254 126.146 321.016 130.132C319.807 134.031 318.353 137.495 316.654 140.525C315.525 142.533 314.617 144.618 313.93 146.78C313.121 149.315 311.925 151.845 310.343 154.37C308.099 157.948 307.1 162.023 304.807 165.577C302.949 168.448 301.082 171.5 299.207 174.732C297.056 178.45 294.417 182.292 291.291 186.26C285.379 193.769 279.644 200.543 272.31 206.862C264.465 213.628 256.045 218.03 246.675 221.976C241.035 224.357 234.261 226.514 228.142 226.514C227.535 226.514 227.367 226.239 227.638 225.691C230.786 219.38 234.868 213.644 238.303 207.413C240.732 203.02 244.151 198.897 247.034 194.56C256.157 180.875 265.344 168.294 275.537 156.431C276.453 155.36 276.35 155.248 275.226 156.095Z" fill="#07150F"/>
<path d="M200.192 162.11C200.24 152.492 201.15 142.978 206.814 134.885C207.123 134.443 207.208 133.967 207.07 133.455C207.035 133.326 206.96 133.212 206.854 133.13C206.749 133.048 206.62 133.002 206.487 133C205.324 132.833 199.1 132.5 183.5 132.5C167.9 132.5 163.338 132.833 163.007 133C162.873 133.002 162.744 133.048 162.639 133.13C162.534 133.212 162.458 133.326 162.424 133.455C162.285 133.967 162.37 134.443 162.679 134.885C168.343 142.978 169.254 152.492 169.302 162.11C169.408 180.548 169.472 198.45 169.493 215.817C169.501 226.018 167.041 235.501 160.171 243.449C160.093 243.54 160.04 243.649 160.015 243.766C159.991 243.883 159.996 244.004 160.03 244.118C160.078 244.249 160.243 244.527 160.514 244.591C162.027 245.007 163.582 245.212 165.18 245.207C169.453 245.304 179.1 245.5 183.5 245.5C187.9 245.5 199.209 245.304 204.314 245.207C205.912 245.212 207.467 245.007 208.979 244.591C209.25 244.527 209.415 244.249 209.463 244.118C209.498 244.004 209.503 243.883 209.478 243.766C209.453 243.649 209.4 243.54 209.323 243.449C202.452 235.501 199.992 226.018 200 215.817C200.021 198.45 200.085 180.548 200.192 162.11Z" fill="black"/>
<path d="M94.6719 226.07C94.5761 226.032 94.5042 226.059 94.4563 226.15V226.157C94.4243 226.216 94.4376 226.261 94.4962 226.293C101.43 230.375 107.877 235.28 114.308 239.794C125.396 247.585 135.893 255.872 145.798 264.654C145.865 264.712 145.912 264.788 145.936 264.872C145.959 264.957 145.957 265.047 145.93 265.13C145.902 265.214 145.851 265.287 145.782 265.342C145.714 265.396 145.63 265.429 145.543 265.437C130.66 267.075 114.707 265.341 101.254 259.246C87.7619 253.135 75.851 244.204 65.5139 233.547C56.9502 224.722 48.9164 215.112 41.4126 204.716C40.5605 203.539 39.7696 202.298 39.04 200.994C39.0143 200.948 39.0006 200.897 39 200.844C38.9995 200.792 39.0121 200.74 39.0368 200.694C39.0615 200.648 39.0974 200.609 39.1412 200.58C39.1851 200.551 39.2354 200.534 39.2876 200.53C42.4085 200.232 45.5373 199.841 48.6741 199.356C60.6649 197.527 73.2308 197.686 85.629 199.013C112.79 201.928 140.742 216.451 151.35 242.542C153.363 247.487 154.338 252.607 154.274 257.944C154.274 258.022 154.252 258.099 154.21 258.166C154.168 258.233 154.109 258.286 154.038 258.321C153.968 258.356 153.889 258.371 153.811 258.363C153.732 258.356 153.658 258.327 153.595 258.279C148.842 254.788 144.201 250.978 139.32 247.718C129.502 241.16 118.877 235.113 107.677 231.126C103.076 229.491 98.7408 227.806 94.6719 226.07Z" fill="#07150F"/>
<path d="M205 260C202.577 274.539 200.449 288.599 200.243 306.513C200.084 320.29 200.069 333.448 200.195 345.987C200.201 346.662 200.048 347 199.736 347L169.048 346.966C168.747 346.966 168.602 346.645 168.613 346.004C168.89 327.617 168.898 307.745 167.489 290.49C166.555 279.032 167.489 271.151 164 260C163.061 257 160.959 255.68 161 255.203C161.106 253.819 161.333 254.055 161.655 254.055C176.964 253.976 192.235 253.982 207.47 254.072C207.828 254.072 208.005 254.449 208 255.203C208 256.261 205.5 257 205 260Z" fill="#07150F"/>
</svg>
